<svg width="275" height="275" viewBox="0 0 275 275" fill="none" xmlns="http://www.w3.org/2000/svg">
<g filter="url(#filter0_d_118_326)">
<path d="M253.289 137.5C253.289 201.449 201.449 253.289 137.5 253.289C73.5512 253.289 21.7105 201.449 21.7105 137.5C21.7105 73.5512 73.5512 21.7105 137.5 21.7105C201.449 21.7105 253.289 73.5512 253.289 137.5Z" fill="#C08E53"/>
<path d="M137.5 20.2105C202.277 20.2105 254.789 72.7226 254.79 137.5C254.79 202.277 202.277 254.79 137.5 254.79C72.7226 254.789 20.2105 202.277 20.2105 137.5C20.2107 72.7227 72.7227 20.2107 137.5 20.2105Z" stroke="#B08355" stroke-width="3"/>
</g>
<g filter="url(#filter1_d_118_326)">
<mask id="path-3-outside-1_118_326" maskUnits="userSpaceOnUse" x="58" y="60" width="157" height="156" fill="black">
<rect fill="white" x="58" y="60" width="157" height="156"/>
<path d="M80.3074 92.1872L80.858 89.6749C82.854 89.7734 84.5058 90.4631 85.8134 91.7438C87.1211 92.9754 88.0847 94.6749 88.7041 96.8424C89.3235 98.9606 89.6332 101.399 89.6332 104.158C89.6332 107.113 89.3006 109.749 88.6353 112.064C87.9929 114.379 87.0408 116.202 85.779 117.532C84.5172 118.862 82.9343 119.527 81.0301 119.527H62.9291L64.9251 91.0788L62.9291 64.1084H80.3763C82.7622 64.1084 84.609 65.3153 85.9167 67.7291C87.2473 70.0936 87.9126 73.3695 87.9126 77.5567C87.9126 79.8227 87.6602 82.0148 87.1555 84.133C86.6738 86.2512 85.8708 88.0493 84.7467 89.5271C83.6455 90.9557 82.1657 91.8424 80.3074 92.1872ZM68.7104 116.35L66.4736 110.291H79.8257C81.0645 110.291 82.0166 109.675 82.6819 108.443C83.3702 107.163 83.7143 105.389 83.7143 103.123C83.7143 100.808 83.3243 98.9852 82.5443 97.6552C81.7642 96.2759 80.6172 95.5862 79.103 95.5862H68.2287V86.5714H78.4148C79.4471 86.5714 80.296 85.9557 80.9613 84.7241C81.6495 83.4434 81.9937 81.67 81.9937 79.4039C81.9937 77.6798 81.7069 76.2512 81.1333 75.1182C80.5598 73.936 79.7339 73.3448 78.6556 73.3448H66.4736L68.7104 67.2857L70.5343 91.0788L68.7104 116.35Z"/>
<path d="M114.866 87.0148V96.6207H96.3861V87.0148H114.866ZM100.309 91.8177L98.5885 115.315L96.042 109.108H115.932V119.527H92.704L94.6999 91.8177L92.704 64.1084H115.76V74.5271H96.042L98.5885 68.3202L100.309 91.8177Z"/>
<path d="M132.012 120.635C129.351 120.635 127.034 119.847 125.061 118.271C123.088 116.645 121.551 114.355 120.45 111.399C119.349 108.443 118.741 104.97 118.626 100.98H124.476C124.683 104.182 125.417 106.645 126.679 108.369C127.963 110.044 129.741 110.882 132.012 110.882C134.169 110.882 135.832 110.217 137.002 108.887C138.195 107.507 138.792 105.463 138.792 102.754C138.792 100.438 138.287 98.7389 137.278 97.6552C136.291 96.5222 134.697 95.9557 132.494 95.9557H127.539V87.4581H132.391C133.699 87.4581 134.777 87.1626 135.626 86.5714C136.475 85.9803 137.106 85.1429 137.518 84.0591C137.931 82.9261 138.138 81.67 138.138 80.2906C138.138 78.665 137.886 77.3103 137.381 76.2266C136.899 75.0936 136.199 74.2315 135.282 73.6404C134.387 73.0493 133.309 72.7537 132.047 72.7537C129.982 72.7537 128.342 73.5911 127.126 75.266C125.91 76.8916 125.199 79.1576 124.992 82.064H119.177C119.314 78.5172 119.899 75.3153 120.932 72.4581C121.987 69.5517 123.478 67.2611 125.405 65.5862C127.332 63.8621 129.638 63 132.322 63C134.708 63 136.773 63.665 138.516 64.9951C140.283 66.2759 141.648 68.0739 142.612 70.3892C143.598 72.7044 144.091 75.3892 144.091 78.4433C144.091 80.9557 143.736 83.2709 143.024 85.3892C142.336 87.5074 141.258 89.1823 139.79 90.4138C138.344 91.6453 136.475 92.2365 134.18 92.1872V90.7833C136.383 90.5369 138.264 90.8818 139.824 91.8177C141.407 92.7537 142.623 94.2069 143.472 96.1773C144.344 98.0985 144.78 100.586 144.78 103.64C144.78 106.99 144.275 109.946 143.265 112.507C142.279 115.069 140.834 117.064 138.929 118.493C137.025 119.921 134.72 120.635 132.012 120.635Z"/>
<path d="M170.248 87.0148V96.6207H151.769V87.0148H170.248ZM155.692 91.8177L153.971 115.315L151.425 109.108H171.315V119.527H148.087L150.083 91.8177L148.087 64.1084H171.143V74.5271H151.425L153.971 68.3202L155.692 91.8177Z"/>
<path d="M212 64.1084V119.527H206.425V68.3202L207.905 68.5419L196.893 119.527H190.871L179.859 68.6897L181.304 68.3941V119.527H175.764V64.1084H184.745L195.138 113.468H192.626L203.018 64.1084H212Z"/>
<path d="M75.3865 213C72.7252 213 70.4081 212.212 68.4351 210.635C66.4622 209.01 64.9251 206.719 63.8239 203.764C62.7227 200.808 62.1147 197.335 62 193.345H67.8501C68.0566 196.547 68.7907 199.01 70.0525 200.734C71.3373 202.409 73.1152 203.246 75.3865 203.246C77.543 203.246 79.2062 202.581 80.3763 201.251C81.5692 199.872 82.1657 197.828 82.1657 195.118C82.1657 192.803 81.661 191.103 80.6516 190.02C79.6651 188.887 78.0706 188.32 75.8682 188.32H70.9128V179.823H75.765C77.0727 179.823 78.1509 179.527 78.9998 178.936C79.8486 178.345 80.4795 177.507 80.8925 176.424C81.3054 175.291 81.5119 174.034 81.5119 172.655C81.5119 171.03 81.2595 169.675 80.7548 168.591C80.273 167.458 79.5733 166.596 78.6556 166.005C77.7609 165.414 76.6827 165.118 75.4209 165.118C73.3561 165.118 71.7158 165.956 70.4999 167.631C69.284 169.256 68.5728 171.522 68.3663 174.429H62.5506C62.6882 170.882 63.2733 167.68 64.3056 164.823C65.361 161.916 66.8522 159.626 68.7793 157.951C70.7064 156.227 73.012 155.365 75.6962 155.365C78.0821 155.365 80.1469 156.03 81.8904 157.36C83.6569 158.64 85.022 160.438 85.9855 162.754C86.972 165.069 87.4652 167.754 87.4652 170.808C87.4652 173.32 87.1096 175.635 86.3985 177.754C85.7102 179.872 84.6319 181.547 83.1637 182.778C81.7184 184.01 79.8486 184.601 77.5544 184.552V183.148C79.7568 182.901 81.6381 183.246 83.1981 184.182C84.7811 185.118 85.997 186.571 86.8458 188.542C87.7176 190.463 88.1535 192.951 88.1535 196.005C88.1535 199.355 87.6488 202.31 86.6393 204.872C85.6529 207.434 84.2075 209.429 82.3034 210.857C80.3992 212.286 78.0936 213 75.3865 213Z"/>
<path d="M113.622 179.379V188.985H95.1427V179.379H113.622ZM99.0657 184.182L97.3451 207.68L94.7986 201.473H114.689V211.892H91.4606L93.4565 184.182L91.4606 156.473H114.517V166.892H94.7986L97.3451 160.685L99.0657 184.182Z"/>
<path d="M133.212 156.473C135.254 156.473 137.021 157.236 138.512 158.764C140.003 160.291 141.139 162.433 141.919 165.192C142.722 167.951 143.123 171.153 143.123 174.798C143.123 178.443 142.722 181.645 141.919 184.404C141.139 187.113 140.003 189.256 138.512 190.833C137.021 192.36 135.254 193.123 133.212 193.123H121.822V182.778H132.903C134.256 182.778 135.312 182.064 136.069 180.635C136.849 179.207 137.239 177.261 137.239 174.798C137.239 172.286 136.849 170.34 136.069 168.961C135.312 167.532 134.256 166.818 132.903 166.818H122.338L124.988 160.833V211.892H119.138V156.473H133.212Z"/>
<path d="M146.526 156.473H152.377V211.892H146.526V156.473ZM167.174 156.473H173.024V211.892H167.174V156.473ZM149.727 178.345H169.755V189.355H149.727V178.345Z"/>
<path d="M192.117 213C189.112 213 186.473 211.793 184.202 209.379C181.954 206.966 180.199 203.616 178.937 199.33C177.675 194.995 177.044 189.946 177.044 184.182C177.044 178.419 177.675 173.394 178.937 169.108C180.199 164.773 181.954 161.399 184.202 158.985C186.473 156.571 189.112 155.365 192.117 155.365C195.122 155.365 197.749 156.571 199.998 158.985C202.269 161.399 204.035 164.773 205.297 169.108C206.559 173.394 207.19 178.419 207.19 184.182C207.19 189.946 206.559 194.995 205.297 199.33C204.035 203.616 202.269 206.966 199.998 209.379C197.749 211.793 195.122 213 192.117 213ZM192.117 201.842C193.998 201.842 195.616 201.128 196.969 199.7C198.346 198.271 199.401 196.227 200.135 193.566C200.892 190.906 201.271 187.778 201.271 184.182C201.271 180.586 200.892 177.458 200.135 174.798C199.401 172.138 198.346 170.094 196.969 168.665C195.616 167.236 193.998 166.522 192.117 166.522C190.259 166.522 188.641 167.236 187.265 168.665C185.888 170.094 184.822 172.138 184.065 174.798C183.33 177.458 182.963 180.586 182.963 184.182C182.963 187.778 183.33 190.906 184.065 193.566C184.822 196.227 185.888 198.271 187.265 199.7C188.641 201.128 190.259 201.842 192.117 201.842Z"/>
</mask>
<path d="M80.3074 92.1872L80.858 89.6749C82.854 89.7734 84.5058 90.4631 85.8134 91.7438C87.1211 92.9754 88.0847 94.6749 88.7041 96.8424C89.3235 98.9606 89.6332 101.399 89.6332 104.158C89.6332 107.113 89.3006 109.749 88.6353 112.064C87.9929 114.379 87.0408 116.202 85.779 117.532C84.5172 118.862 82.9343 119.527 81.0301 119.527H62.9291L64.9251 91.0788L62.9291 64.1084H80.3763C82.7622 64.1084 84.609 65.3153 85.9167 67.7291C87.2473 70.0936 87.9126 73.3695 87.9126 77.5567C87.9126 79.8227 87.6602 82.0148 87.1555 84.133C86.6738 86.2512 85.8708 88.0493 84.7467 89.5271C83.6455 90.9557 82.1657 91.8424 80.3074 92.1872ZM68.7104 116.35L66.4736 110.291H79.8257C81.0645 110.291 82.0166 109.675 82.6819 108.443C83.3702 107.163 83.7143 105.389 83.7143 103.123C83.7143 100.808 83.3243 98.9852 82.5443 97.6552C81.7642 96.2759 80.6172 95.5862 79.103 95.5862H68.2287V86.5714H78.4148C79.4471 86.5714 80.296 85.9557 80.9613 84.7241C81.6495 83.4434 81.9937 81.67 81.9937 79.4039C81.9937 77.6798 81.7069 76.2512 81.1333 75.1182C80.5598 73.936 79.7339 73.3448 78.6556 73.3448H66.4736L68.7104 67.2857L70.5343 91.0788L68.7104 116.35Z" fill="#EEDCC4"/>
<path d="M114.866 87.0148V96.6207H96.3861V87.0148H114.866ZM100.309 91.8177L98.5885 115.315L96.042 109.108H115.932V119.527H92.704L94.6999 91.8177L92.704 64.1084H115.76V74.5271H96.042L98.5885 68.3202L100.309 91.8177Z" fill="#EEDCC4"/>
<path d="M132.012 120.635C129.351 120.635 127.034 119.847 125.061 118.271C123.088 116.645 121.551 114.355 120.45 111.399C119.349 108.443 118.741 104.97 118.626 100.98H124.476C124.683 104.182 125.417 106.645 126.679 108.369C127.963 110.044 129.741 110.882 132.012 110.882C134.169 110.882 135.832 110.217 137.002 108.887C138.195 107.507 138.792 105.463 138.792 102.754C138.792 100.438 138.287 98.7389 137.278 97.6552C136.291 96.5222 134.697 95.9557 132.494 95.9557H127.539V87.4581H132.391C133.699 87.4581 134.777 87.1626 135.626 86.5714C136.475 85.9803 137.106 85.1429 137.518 84.0591C137.931 82.9261 138.138 81.67 138.138 80.2906C138.138 78.665 137.886 77.3103 137.381 76.2266C136.899 75.0936 136.199 74.2315 135.282 73.6404C134.387 73.0493 133.309 72.7537 132.047 72.7537C129.982 72.7537 128.342 73.5911 127.126 75.266C125.91 76.8916 125.199 79.1576 124.992 82.064H119.177C119.314 78.5172 119.899 75.3153 120.932 72.4581C121.987 69.5517 123.478 67.2611 125.405 65.5862C127.332 63.8621 129.638 63 132.322 63C134.708 63 136.773 63.665 138.516 64.9951C140.283 66.2759 141.648 68.0739 142.612 70.3892C143.598 72.7044 144.091 75.3892 144.091 78.4433C144.091 80.9557 143.736 83.2709 143.024 85.3892C142.336 87.5074 141.258 89.1823 139.79 90.4138C138.344 91.6453 136.475 92.2365 134.18 92.1872V90.7833C136.383 90.5369 138.264 90.8818 139.824 91.8177C141.407 92.7537 142.623 94.2069 143.472 96.1773C144.344 98.0985 144.78 100.586 144.78 103.64C144.78 106.99 144.275 109.946 143.265 112.507C142.279 115.069 140.834 117.064 138.929 118.493C137.025 119.921 134.72 120.635 132.012 120.635Z" fill="#EEDCC4"/>
<path d="M170.248 87.0148V96.6207H151.769V87.0148H170.248ZM155.692 91.8177L153.971 115.315L151.425 109.108H171.315V119.527H148.087L150.083 91.8177L148.087 64.1084H171.143V74.5271H151.425L153.971 68.3202L155.692 91.8177Z" fill="#EEDCC4"/>
<path d="M212 64.1084V119.527H206.425V68.3202L207.905 68.5419L196.893 119.527H190.871L179.859 68.6897L181.304 68.3941V119.527H175.764V64.1084H184.745L195.138 113.468H192.626L203.018 64.1084H212Z" fill="#EEDCC4"/>
<path d="M75.3865 213C72.7252 213 70.4081 212.212 68.4351 210.635C66.4622 209.01 64.9251 206.719 63.8239 203.764C62.7227 200.808 62.1147 197.335 62 193.345H67.8501C68.0566 196.547 68.7907 199.01 70.0525 200.734C71.3373 202.409 73.1152 203.246 75.3865 203.246C77.543 203.246 79.2062 202.581 80.3763 201.251C81.5692 199.872 82.1657 197.828 82.1657 195.118C82.1657 192.803 81.661 191.103 80.6516 190.02C79.6651 188.887 78.0706 188.32 75.8682 188.32H70.9128V179.823H75.765C77.0727 179.823 78.1509 179.527 78.9998 178.936C79.8486 178.345 80.4795 177.507 80.8925 176.424C81.3054 175.291 81.5119 174.034 81.5119 172.655C81.5119 171.03 81.2595 169.675 80.7548 168.591C80.273 167.458 79.5733 166.596 78.6556 166.005C77.7609 165.414 76.6827 165.118 75.4209 165.118C73.3561 165.118 71.7158 165.956 70.4999 167.631C69.284 169.256 68.5728 171.522 68.3663 174.429H62.5506C62.6882 170.882 63.2733 167.68 64.3056 164.823C65.361 161.916 66.8522 159.626 68.7793 157.951C70.7064 156.227 73.012 155.365 75.6962 155.365C78.0821 155.365 80.1469 156.03 81.8904 157.36C83.6569 158.64 85.022 160.438 85.9855 162.754C86.972 165.069 87.4652 167.754 87.4652 170.808C87.4652 173.32 87.1096 175.635 86.3985 177.754C85.7102 179.872 84.6319 181.547 83.1637 182.778C81.7184 184.01 79.8486 184.601 77.5544 184.552V183.148C79.7568 182.901 81.6381 183.246 83.1981 184.182C84.7811 185.118 85.997 186.571 86.8458 188.542C87.7176 190.463 88.1535 192.951 88.1535 196.005C88.1535 199.355 87.6488 202.31 86.6393 204.872C85.6529 207.434 84.2075 209.429 82.3034 210.857C80.3992 212.286 78.0936 213 75.3865 213Z" fill="#EEDCC4"/>
<path d="M113.622 179.379V188.985H95.1427V179.379H113.622ZM99.0657 184.182L97.3451 207.68L94.7986 201.473H114.689V211.892H91.4606L93.4565 184.182L91.4606 156.473H114.517V166.892H94.7986L97.3451 160.685L99.0657 184.182Z" fill="#EEDCC4"/>
<path d="M133.212 156.473C135.254 156.473 137.021 157.236 138.512 158.764C140.003 160.291 141.139 162.433 141.919 165.192C142.722 167.951 143.123 171.153 143.123 174.798C143.123 178.443 142.722 181.645 141.919 184.404C141.139 187.113 140.003 189.256 138.512 190.833C137.021 192.36 135.254 193.123 133.212 193.123H121.822V182.778H132.903C134.256 182.778 135.312 182.064 136.069 180.635C136.849 179.207 137.239 177.261 137.239 174.798C137.239 172.286 136.849 170.34 136.069 168.961C135.312 167.532 134.256 166.818 132.903 166.818H122.338L124.988 160.833V211.892H119.138V156.473H133.212Z" fill="#EEDCC4"/>
<path d="M146.526 156.473H152.377V211.892H146.526V156.473ZM167.174 156.473H173.024V211.892H167.174V156.473ZM149.727 178.345H169.755V189.355H149.727V178.345Z" fill="#EEDCC4"/>
<path d="M192.117 213C189.112 213 186.473 211.793 184.202 209.379C181.954 206.966 180.199 203.616 178.937 199.33C177.675 194.995 177.044 189.946 177.044 184.182C177.044 178.419 177.675 173.394 178.937 169.108C180.199 164.773 181.954 161.399 184.202 158.985C186.473 156.571 189.112 155.365 192.117 155.365C195.122 155.365 197.749 156.571 199.998 158.985C202.269 161.399 204.035 164.773 205.297 169.108C206.559 173.394 207.19 178.419 207.19 184.182C207.19 189.946 206.559 194.995 205.297 199.33C204.035 203.616 202.269 206.966 199.998 209.379C197.749 211.793 195.122 213 192.117 213ZM192.117 201.842C193.998 201.842 195.616 201.128 196.969 199.7C198.346 198.271 199.401 196.227 200.135 193.566C200.892 190.906 201.271 187.778 201.271 184.182C201.271 180.586 200.892 177.458 200.135 174.798C199.401 172.138 198.346 170.094 196.969 168.665C195.616 167.236 193.998 166.522 192.117 166.522C190.259 166.522 188.641 167.236 187.265 168.665C185.888 170.094 184.822 172.138 184.065 174.798C183.33 177.458 182.963 180.586 182.963 184.182C182.963 187.778 183.33 190.906 184.065 193.566C184.822 196.227 185.888 198.271 187.265 199.7C188.641 201.128 190.259 201.842 192.117 201.842Z" fill="#EEDCC4"/>
<path d="M80.3074 92.1872L80.858 89.6749C82.854 89.7734 84.5058 90.4631 85.8134 91.7438C87.1211 92.9754 88.0847 94.6749 88.7041 96.8424C89.3235 98.9606 89.6332 101.399 89.6332 104.158C89.6332 107.113 89.3006 109.749 88.6353 112.064C87.9929 114.379 87.0408 116.202 85.779 117.532C84.5172 118.862 82.9343 119.527 81.0301 119.527H62.9291L64.9251 91.0788L62.9291 64.1084H80.3763C82.7622 64.1084 84.609 65.3153 85.9167 67.7291C87.2473 70.0936 87.9126 73.3695 87.9126 77.5567C87.9126 79.8227 87.6602 82.0148 87.1555 84.133C86.6738 86.2512 85.8708 88.0493 84.7467 89.5271C83.6455 90.9557 82.1657 91.8424 80.3074 92.1872ZM68.7104 116.35L66.4736 110.291H79.8257C81.0645 110.291 82.0166 109.675 82.6819 108.443C83.3702 107.163 83.7143 105.389 83.7143 103.123C83.7143 100.808 83.3243 98.9852 82.5443 97.6552C81.7642 96.2759 80.6172 95.5862 79.103 95.5862H68.2287V86.5714H78.4148C79.4471 86.5714 80.296 85.9557 80.9613 84.7241C81.6495 83.4434 81.9937 81.67 81.9937 79.4039C81.9937 77.6798 81.7069 76.2512 81.1333 75.1182C80.5598 73.936 79.7339 73.3448 78.6556 73.3448H66.4736L68.7104 67.2857L70.5343 91.0788L68.7104 116.35Z" stroke="#B08355" stroke-width="6" mask="url(#path-3-outside-1_118_326)"/>
<path d="M114.866 87.0148V96.6207H96.3861V87.0148H114.866ZM100.309 91.8177L98.5885 115.315L96.042 109.108H115.932V119.527H92.704L94.6999 91.8177L92.704 64.1084H115.76V74.5271H96.042L98.5885 68.3202L100.309 91.8177Z" stroke="#B08355" stroke-width="6" mask="url(#path-3-outside-1_118_326)"/>
<path d="M132.012 120.635C129.351 120.635 127.034 119.847 125.061 118.271C123.088 116.645 121.551 114.355 120.45 111.399C119.349 108.443 118.741 104.97 118.626 100.98H124.476C124.683 104.182 125.417 106.645 126.679 108.369C127.963 110.044 129.741 110.882 132.012 110.882C134.169 110.882 135.832 110.217 137.002 108.887C138.195 107.507 138.792 105.463 138.792 102.754C138.792 100.438 138.287 98.7389 137.278 97.6552C136.291 96.5222 134.697 95.9557 132.494 95.9557H127.539V87.4581H132.391C133.699 87.4581 134.777 87.1626 135.626 86.5714C136.475 85.9803 137.106 85.1429 137.518 84.0591C137.931 82.9261 138.138 81.67 138.138 80.2906C138.138 78.665 137.886 77.3103 137.381 76.2266C136.899 75.0936 136.199 74.2315 135.282 73.6404C134.387 73.0493 133.309 72.7537 132.047 72.7537C129.982 72.7537 128.342 73.5911 127.126 75.266C125.91 76.8916 125.199 79.1576 124.992 82.064H119.177C119.314 78.5172 119.899 75.3153 120.932 72.4581C121.987 69.5517 123.478 67.2611 125.405 65.5862C127.332 63.8621 129.638 63 132.322 63C134.708 63 136.773 63.665 138.516 64.9951C140.283 66.2759 141.648 68.0739 142.612 70.3892C143.598 72.7044 144.091 75.3892 144.091 78.4433C144.091 80.9557 143.736 83.2709 143.024 85.3892C142.336 87.5074 141.258 89.1823 139.79 90.4138C138.344 91.6453 136.475 92.2365 134.18 92.1872V90.7833C136.383 90.5369 138.264 90.8818 139.824 91.8177C141.407 92.7537 142.623 94.2069 143.472 96.1773C144.344 98.0985 144.78 100.586 144.78 103.64C144.78 106.99 144.275 109.946 143.265 112.507C142.279 115.069 140.834 117.064 138.929 118.493C137.025 119.921 134.72 120.635 132.012 120.635Z" stroke="#B08355" stroke-width="6" mask="url(#path-3-outside-1_118_326)"/>
<path d="M170.248 87.0148V96.6207H151.769V87.0148H170.248ZM155.692 91.8177L153.971 115.315L151.425 109.108H171.315V119.527H148.087L150.083 91.8177L148.087 64.1084H171.143V74.5271H151.425L153.971 68.3202L155.692 91.8177Z" stroke="#B08355" stroke-width="6" mask="url(#path-3-outside-1_118_326)"/>
<path d="M212 64.1084V119.527H206.425V68.3202L207.905 68.5419L196.893 119.527H190.871L179.859 68.6897L181.304 68.3941V119.527H175.764V64.1084H184.745L195.138 113.468H192.626L203.018 64.1084H212Z" stroke="#B08355" stroke-width="6" mask="url(#path-3-outside-1_118_326)"/>
<path d="M75.3865 213C72.7252 213 70.4081 212.212 68.4351 210.635C66.4622 209.01 64.9251 206.719 63.8239 203.764C62.7227 200.808 62.1147 197.335 62 193.345H67.8501C68.0566 196.547 68.7907 199.01 70.0525 200.734C71.3373 202.409 73.1152 203.246 75.3865 203.246C77.543 203.246 79.2062 202.581 80.3763 201.251C81.5692 199.872 82.1657 197.828 82.1657 195.118C82.1657 192.803 81.661 191.103 80.6516 190.02C79.6651 188.887 78.0706 188.32 75.8682 188.32H70.9128V179.823H75.765C77.0727 179.823 78.1509 179.527 78.9998 178.936C79.8486 178.345 80.4795 177.507 80.8925 176.424C81.3054 175.291 81.5119 174.034 81.5119 172.655C81.5119 171.03 81.2595 169.675 80.7548 168.591C80.273 167.458 79.5733 166.596 78.6556 166.005C77.7609 165.414 76.6827 165.118 75.4209 165.118C73.3561 165.118 71.7158 165.956 70.4999 167.631C69.284 169.256 68.5728 171.522 68.3663 174.429H62.5506C62.6882 170.882 63.2733 167.68 64.3056 164.823C65.361 161.916 66.8522 159.626 68.7793 157.951C70.7064 156.227 73.012 155.365 75.6962 155.365C78.0821 155.365 80.1469 156.03 81.8904 157.36C83.6569 158.64 85.022 160.438 85.9855 162.754C86.972 165.069 87.4652 167.754 87.4652 170.808C87.4652 173.32 87.1096 175.635 86.3985 177.754C85.7102 179.872 84.6319 181.547 83.1637 182.778C81.7184 184.01 79.8486 184.601 77.5544 184.552V183.148C79.7568 182.901 81.6381 183.246 83.1981 184.182C84.7811 185.118 85.997 186.571 86.8458 188.542C87.7176 190.463 88.1535 192.951 88.1535 196.005C88.1535 199.355 87.6488 202.31 86.6393 204.872C85.6529 207.434 84.2075 209.429 82.3034 210.857C80.3992 212.286 78.0936 213 75.3865 213Z" stroke="#B08355" stroke-width="6" mask="url(#path-3-outside-1_118_326)"/>
<path d="M113.622 179.379V188.985H95.1427V179.379H113.622ZM99.0657 184.182L97.3451 207.68L94.7986 201.473H114.689V211.892H91.4606L93.4565 184.182L91.4606 156.473H114.517V166.892H94.7986L97.3451 160.685L99.0657 184.182Z" stroke="#B08355" stroke-width="6" mask="url(#path-3-outside-1_118_326)"/>
<path d="M133.212 156.473C135.254 156.473 137.021 157.236 138.512 158.764C140.003 160.291 141.139 162.433 141.919 165.192C142.722 167.951 143.123 171.153 143.123 174.798C143.123 178.443 142.722 181.645 141.919 184.404C141.139 187.113 140.003 189.256 138.512 190.833C137.021 192.36 135.254 193.123 133.212 193.123H121.822V182.778H132.903C134.256 182.778 135.312 182.064 136.069 180.635C136.849 179.207 137.239 177.261 137.239 174.798C137.239 172.286 136.849 170.34 136.069 168.961C135.312 167.532 134.256 166.818 132.903 166.818H122.338L124.988 160.833V211.892H119.138V156.473H133.212Z" stroke="#B08355" stroke-width="6" mask="url(#path-3-outside-1_118_326)"/>
<path d="M146.526 156.473H152.377V211.892H146.526V156.473ZM167.174 156.473H173.024V211.892H167.174V156.473ZM149.727 178.345H169.755V189.355H149.727V178.345Z" stroke="#B08355" stroke-width="6" mask="url(#path-3-outside-1_118_326)"/>
<path d="M192.117 213C189.112 213 186.473 211.793 184.202 209.379C181.954 206.966 180.199 203.616 178.937 199.33C177.675 194.995 177.044 189.946 177.044 184.182C177.044 178.419 177.675 173.394 178.937 169.108C180.199 164.773 181.954 161.399 184.202 158.985C186.473 156.571 189.112 155.365 192.117 155.365C195.122 155.365 197.749 156.571 199.998 158.985C202.269 161.399 204.035 164.773 205.297 169.108C206.559 173.394 207.19 178.419 207.19 184.182C207.19 189.946 206.559 194.995 205.297 199.33C204.035 203.616 202.269 206.966 199.998 209.379C197.749 211.793 195.122 213 192.117 213ZM192.117 201.842C193.998 201.842 195.616 201.128 196.969 199.7C198.346 198.271 199.401 196.227 200.135 193.566C200.892 190.906 201.271 187.778 201.271 184.182C201.271 180.586 200.892 177.458 200.135 174.798C199.401 172.138 198.346 170.094 196.969 168.665C195.616 167.236 193.998 166.522 192.117 166.522C190.259 166.522 188.641 167.236 187.265 168.665C185.888 170.094 184.822 172.138 184.065 174.798C183.33 177.458 182.963 180.586 182.963 184.182C182.963 187.778 183.33 190.906 184.065 193.566C184.822 196.227 185.888 198.271 187.265 199.7C188.641 201.128 190.259 201.842 192.117 201.842Z" stroke="#B08355" stroke-width="6" mask="url(#path-3-outside-1_118_326)"/>
</g>
<defs>
<filter id="filter0_d_118_326" x="14.7105" y="18.7105" width="245.579" height="245.579" filterUnits="userSpaceOnUse" color-interpolation-filters="sRGB">
<feFlood flood-opacity="0" result="BackgroundImageFix"/>
<feColorMatrix in="SourceAlpha" type="matrix" values="0 0 0 0 0 0 0 0 0 0 0 0 0 0 0 0 0 0 127 0" result="hardAlpha"/>
<feOffset dy="4"/>
<feGaussianBlur stdDeviation="2"/>
<feComposite in2="hardAlpha" operator="out"/>
<feColorMatrix type="matrix" values="0 0 0 0 0 0 0 0 0 0 0 0 0 0 0 0 0 0 0.25 0"/>
<feBlend mode="normal" in2="BackgroundImageFix" result="effect1_dropShadow_118_326"/>
<feBlend mode="normal" in="SourceGraphic" in2="effect1_dropShadow_118_326" result="shape"/>
</filter>
<filter id="filter1_d_118_326" x="54.9125" y="60" width="164.087" height="164" filterUnits="userSpaceOnUse" color-interpolation-filters="sRGB">
<feFlood flood-opacity="0" result="BackgroundImageFix"/>
<feColorMatrix in="SourceAlpha" type="matrix" values="0 0 0 0 0 0 0 0 0 0 0 0 0 0 0 0 0 0 127 0" result="hardAlpha"/>
<feOffset dy="4"/>
<feGaussianBlur stdDeviation="2"/>
<feComposite in2="hardAlpha" operator="out"/>
<feColorMatrix type="matrix" values="0 0 0 0 0 0 0 0 0 0 0 0 0 0 0 0 0 0 0.25 0"/>
<feBlend mode="normal" in2="BackgroundImageFix" result="effect1_dropShadow_118_326"/>
<feBlend mode="normal" in="SourceGraphic" in2="effect1_dropShadow_118_326" result="shape"/>
</filter>
</defs>
</svg>
