<svg width="24" height="24" viewBox="0 0 24 24" fill="none" xmlns="http://www.w3.org/2000/svg">
<path d="M23.2317 10.2758C23.2441 10.1726 23.2441 10.068 23.2317 9.96479C23.2317 7.35116 21.361 5.23239 19.0533 5.23239H13.7289C13.0696 5.23239 12.5351 4.62703 12.5351 3.88028C12.5351 2.98378 12.2206 2.12399 11.6609 1.49006C11.1012 0.856136 10.3421 0.5 9.55053 0.5H4.47681C2.00434 0.5 0 2.77011 0 5.57042V20.8087C0.0195669 22.8487 1.4818 24.4927 3.283 24.5H18.3967C19.7503 24.4931 20.9625 23.5492 21.4529 22.1203L23.948 13.3315C24.1208 12.2431 23.8584 11.1238 23.2317 10.2758ZM1.79072 5.57042C1.79072 3.89023 2.99333 2.52817 4.47681 2.52817H9.55053C10.2099 2.52817 10.7443 3.13353 10.7443 3.88028C10.7509 5.74408 12.0833 7.25315 13.7289 7.26056H19.1011C20.0928 7.26041 20.9814 7.95468 21.3335 9.00479C21.127 8.98444 20.9193 8.98444 20.7127 9.00479H6.14816C4.77269 9.00518 3.54327 9.97666 3.06811 11.4386L1.79072 15.1975V5.57042ZM18.3967 22.4718C19.0016 22.471 19.5452 22.0534 19.7696 21.4172L22.2527 12.8313C22.298 12.3757 22.1724 11.9195 21.9065 11.5738C21.6091 11.1802 21.1698 10.9613 20.7127 10.9789H6.14816C5.5203 10.9793 4.9587 11.4213 4.73945 12.0876L1.79072 20.9439C1.87008 21.8105 2.51383 22.4696 3.283 22.4718H18.3967Z" fill="#422C1A"/>
</svg>
