<svg width="22" height="12" viewBox="0 0 22 12" fill="none" xmlns="http://www.w3.org/2000/svg">
<path d="M8.701 7.75L11.299 6.25M11.299 7.75L8.701 6.25M10 5.5V8.5M3.951 7.75L6.549 6.25M6.549 7.75L3.951 6.25M5.25 5.5V8.5M13.5 2.75H3.75C3.15326 2.75 2.58097 2.98706 2.15901 3.40901C1.73705 3.83097 1.5 4.40327 1.5 5V9C1.5 9.59674 1.73705 10.169 2.15901 10.591C2.58097 11.013 3.15326 11.25 3.75 11.25H18.25C18.8467 11.25 19.419 11.013 19.841 10.591C20.2629 10.169 20.5 9.59674 20.5 9V7.5M18.568 1.311C18.8494 1.03392 19.2292 0.879855 19.6241 0.882667C20.019 0.88548 20.3966 1.04494 20.674 1.32601C20.9554 1.60343 21.115 1.98127 21.1178 2.3764C21.1207 2.77153 20.9664 3.1516 20.689 3.433L16.88 7.242C16.4626 7.65991 15.9462 7.9654 15.379 8.13L13.25 8.75L13.87 6.622C14.0347 6.0543 14.3406 5.53757 14.759 5.12L18.568 1.311Z" stroke="#422C1A" stroke-width="1.5" stroke-linecap="round" stroke-linejoin="round"/>
</svg>
