<svg width="28" height="28" viewBox="0 0 28 28" fill="none" xmlns="http://www.w3.org/2000/svg">
<path d="M5.9375 2.13086L5.49313 0.96251L5.4927 0.962676L5.9375 2.13086ZM7.04395 2.03906L7.2909 0.813701L7.29052 0.813623L7.04395 2.03906ZM8.63867 2.96387L9.36542 1.94684L9.36523 1.94671L8.63867 2.96387ZM10.5205 4.30859L9.79376 5.32562L9.79407 5.32584L10.5205 4.30859ZM12.2598 4.64844L12.0312 3.41951L12.0312 3.41951L12.2598 4.64844ZM13.999 4.4873L13.9991 3.2373H13.999L13.999 4.4873ZM15.7383 4.64844L15.5097 5.87735L15.5098 5.87737L15.7383 4.64844ZM17.4766 4.30859L16.7503 3.29121L16.7503 3.29123L17.4766 4.30859ZM19.3604 2.96387L20.0866 3.98125L20.0869 3.98102L19.3604 2.96387ZM20.9561 2.03906L20.71 0.813526L20.7095 0.813624L20.9561 2.03906ZM22.0615 2.13086L22.5064 0.962701L22.5061 0.96258L22.0615 2.13086ZM23.4834 3.30469L22.5995 4.18855L22.5995 4.18857L23.4834 3.30469ZM24.6943 4.51562L25.5782 3.63176L25.5782 3.63174L24.6943 4.51562ZM25.8682 5.9375L27.0364 5.49285L27.0363 5.4926L25.8682 5.9375ZM25.96 7.04395L27.1853 7.29085L27.1855 7.29017L25.96 7.04395ZM25.0352 8.63867L26.0521 9.36552L26.0523 9.3652L25.0352 8.63867ZM23.6895 10.5215L22.6725 9.79464L22.6723 9.79486L23.6895 10.5215ZM23.3506 12.2607L24.5794 12.0317L24.5794 12.0316L23.3506 12.2607ZM23.5117 14H24.7617V13.9999L23.5117 14ZM23.3506 15.7393L24.5794 15.9684L24.5794 15.9684L23.3506 15.7393ZM23.6895 17.4785L22.6724 18.2053L22.6728 18.2057L23.6895 17.4785ZM25.0361 19.3613L26.0533 18.6348L26.0528 18.6341L25.0361 19.3613ZM25.9609 20.957L27.1864 20.7106L27.1863 20.7101L25.9609 20.957ZM25.8691 22.0625L27.0374 22.5072L27.0376 22.5066L25.8691 22.0625ZM24.6953 23.4844L25.5792 24.3683L25.5792 24.3682L24.6953 23.4844ZM23.4844 24.6953L22.6005 23.8114L22.6005 23.8114L23.4844 24.6953ZM22.0625 25.8691L22.5072 27.0374L22.5076 27.0372L22.0625 25.8691ZM20.957 25.9609L20.7105 27.1864L20.7109 27.1865L20.957 25.9609ZM19.3613 25.0371L20.0879 24.02L20.0877 24.0198L19.3613 25.0371ZM17.4766 23.6914L16.75 24.7085L16.7502 24.7087L17.4766 23.6914ZM15.7373 23.3525L15.9664 24.5814L15.9665 24.5814L15.7373 23.3525ZM13.999 23.5127L13.999 24.7627H13.9991L13.999 23.5127ZM12.2588 23.3525L12.4878 22.1237L12.4877 22.1237L12.2588 23.3525ZM10.5195 23.6924L11.2463 24.7094L11.2465 24.7093L10.5195 23.6924ZM8.6377 25.0371L9.36426 26.0543L9.36444 26.0541L8.6377 25.0371ZM7.04297 25.9609L7.28952 27.1864L7.28997 27.1863L7.04297 25.9609ZM5.9375 25.8691L5.49281 27.0374L5.4931 27.0375L5.9375 25.8691ZM4.51562 24.6953L5.39953 23.8114L5.39951 23.8114L4.51562 24.6953ZM3.30469 23.4844L2.42078 24.3682L2.4208 24.3683L3.30469 23.4844ZM2.13086 22.0625L0.96249 22.5068L0.962621 22.5072L2.13086 22.0625ZM2.03906 20.957L0.813714 20.71L0.8136 20.7106L2.03906 20.957ZM2.96289 19.3613L3.98007 20.0879L3.98009 20.0878L2.96289 19.3613ZM4.30762 17.4785L5.32482 18.205L5.32498 18.2048L4.30762 17.4785ZM4.64648 15.7402L5.87554 15.5124L5.87551 15.5122L4.64648 15.7402ZM4.4873 14L3.2373 13.9999V14H4.4873ZM4.64648 12.2598L3.41743 12.0319L3.41742 12.032L4.64648 12.2598ZM4.30664 10.5205L3.28912 11.2466L3.28935 11.2469L4.30664 10.5205ZM2.96387 8.63867L3.98139 7.91262L3.98104 7.91213L2.96387 8.63867ZM2.04004 7.04395L0.814551 7.29028L0.814666 7.29085L2.04004 7.04395ZM2.13086 5.9375L0.962808 5.49235L0.962613 5.49287L2.13086 5.9375ZM3.30469 4.51562L2.42116 3.63139L2.42079 3.63175L3.30469 4.51562ZM4.5166 3.30469L5.40013 4.18893L5.40049 4.18856L4.5166 3.30469ZM13.999 10.4326V9.18262H13.9989L13.999 10.4326ZM10.4326 14L9.18262 13.9999V14H10.4326ZM13.999 17.5674L13.9989 18.8174H13.999V17.5674ZM17.5664 14H18.8164V13.9999L17.5664 14ZM5.9375 2.13086L6.38187 3.29921C6.51486 3.24863 6.65958 3.23678 6.79737 3.2645L7.04395 2.03906L7.29052 0.813623C6.68885 0.69256 6.06515 0.744952 5.49313 0.96251L5.9375 2.13086ZM7.04395 2.03906L6.79699 3.26442C6.80863 3.26677 6.87085 3.27939 7.05637 3.39197C7.25526 3.51266 7.5048 3.69008 7.91211 3.98103L8.63867 2.96387L9.36523 1.94671C8.98916 1.67808 8.65106 1.43537 8.35331 1.25469C8.04218 1.06589 7.69874 0.895895 7.2909 0.813701L7.04395 2.03906ZM8.63867 2.96387L7.91192 3.98089L9.79376 5.32562L10.5205 4.30859L11.2473 3.29157L9.36542 1.94684L8.63867 2.96387ZM10.5205 4.30859L9.79407 5.32584C10.6226 5.91751 11.619 6.03906 12.4883 5.87736L12.2598 4.64844L12.0312 3.41951C11.6923 3.48255 11.4186 3.41392 11.247 3.29135L10.5205 4.30859ZM12.2598 4.64844L12.4883 5.87737C12.9791 5.78609 13.4841 5.73732 13.999 5.7373L13.999 4.4873L13.999 3.2373C13.3258 3.23732 12.6679 3.30111 12.0312 3.41951L12.2598 4.64844ZM13.999 4.4873L13.999 5.7373C14.5141 5.73733 15.0189 5.78606 15.5097 5.87735L15.7383 4.64844L15.9669 3.41952C15.33 3.30105 14.6722 3.23733 13.9991 3.2373L13.999 4.4873ZM15.7383 4.64844L15.5098 5.87737C16.3793 6.03906 17.3748 5.91708 18.2028 5.32596L17.4766 4.30859L16.7503 3.29123C16.5784 3.41393 16.3051 3.48241 15.9668 3.4195L15.7383 4.64844ZM17.4766 4.30859L18.2028 5.32597L20.0866 3.98125L19.3604 2.96387L18.6341 1.94649L16.7503 3.29121L17.4766 4.30859ZM19.3604 2.96387L20.0869 3.98102C20.494 3.69026 20.7437 3.5128 20.9427 3.39217C21.1284 3.27956 21.1909 3.26686 21.2026 3.2645L20.9561 2.03906L20.7095 0.813624C20.3017 0.895685 19.958 1.06561 19.6466 1.2544C19.3484 1.43519 19.0101 1.67791 18.6338 1.94672L19.3604 2.96387ZM20.9561 2.03906L21.2021 3.2646C21.3404 3.23684 21.4845 3.24875 21.617 3.29914L22.0615 2.13086L22.5061 0.96258C21.9338 0.744839 21.3109 0.692858 20.71 0.813526L20.9561 2.03906ZM22.0615 2.13086L21.6167 3.29902C21.6285 3.30352 21.6882 3.32654 21.8526 3.46774C22.0288 3.61907 22.246 3.83499 22.5995 4.18855L23.4834 3.30469L24.3673 2.42082C24.04 2.0935 23.7462 1.79867 23.4817 1.57139C23.2053 1.33397 22.8945 1.11051 22.5064 0.962701L22.0615 2.13086ZM23.4834 3.30469L22.5995 4.18857L23.8105 5.39951L24.6943 4.51562L25.5782 3.63174L24.3673 2.4208L23.4834 3.30469ZM24.6943 4.51562L23.8104 5.39949C24.164 5.75306 24.3799 5.97026 24.5313 6.14645C24.6725 6.31084 24.6955 6.3706 24.7 6.3824L25.8682 5.9375L27.0363 5.4926C26.8885 5.10445 26.665 4.7937 26.4276 4.51736C26.2003 4.25281 25.9055 3.95905 25.5782 3.63176L24.6943 4.51562ZM25.8682 5.9375L24.6999 6.38215C24.7503 6.51452 24.7623 6.65923 24.7345 6.79772L25.96 7.04395L27.1855 7.29017C27.3062 6.68915 27.2543 6.06544 27.0364 5.49285L25.8682 5.9375ZM25.96 7.04395L24.7346 6.79704C24.7323 6.80853 24.7197 6.87076 24.607 7.05643C24.4863 7.25539 24.3088 7.50495 24.018 7.91215L25.0352 8.63867L26.0523 9.3652C26.3209 8.98927 26.5636 8.65117 26.7442 8.35341C26.933 8.04235 27.1031 7.69878 27.1853 7.29085L25.96 7.04395ZM25.0352 8.63867L24.0182 7.91182L22.6725 9.79464L23.6895 10.5215L24.7064 11.2483L26.0521 9.36552L25.0352 8.63867ZM23.6895 10.5215L22.6723 9.79486C22.0797 10.6245 21.9598 11.6213 22.1218 12.4898L23.3506 12.2607L24.5794 12.0316C24.516 11.6916 24.5846 11.4188 24.7066 11.2481L23.6895 10.5215ZM23.3506 12.2607L22.1218 12.4898C22.2131 12.98 22.2617 13.4845 22.2617 14.0001L23.5117 14L24.7617 13.9999C24.7617 13.327 24.6983 12.6692 24.5794 12.0317L23.3506 12.2607ZM23.5117 14H22.2617C22.2617 14.5153 22.2131 15.0201 22.1218 15.5101L23.3506 15.7393L24.5794 15.9684C24.6983 15.331 24.7617 14.6728 24.7617 14H23.5117ZM23.3506 15.7393L22.1218 15.5101C21.9598 16.3786 22.0796 17.3756 22.6724 18.2053L23.6895 17.4785L24.7065 16.7518C24.5846 16.5812 24.516 16.3084 24.5794 15.9684L23.3506 15.7393ZM23.6895 17.4785L22.6728 18.2057L24.0194 20.0885L25.0361 19.3613L26.0528 18.6341L24.7062 16.7513L23.6895 17.4785ZM25.0361 19.3613L24.019 20.0879C24.3097 20.4949 24.4872 20.7447 24.6078 20.9437C24.7204 21.1294 24.7332 21.192 24.7356 21.2039L25.9609 20.957L27.1863 20.7101C27.1042 20.3026 26.9344 19.959 26.7456 19.6476C26.5648 19.3495 26.3222 19.0112 26.0533 18.6348L25.0361 19.3613ZM25.9609 20.957L24.7355 21.2034C24.7631 21.3409 24.7513 21.4852 24.7007 21.6184L25.8691 22.0625L27.0376 22.5066C27.2548 21.9352 27.3074 21.3122 27.1864 20.7106L25.9609 20.957ZM25.8691 22.0625L24.7009 21.6178C24.6965 21.6294 24.6735 21.6891 24.5323 21.8536C24.3809 22.0298 24.1649 22.247 23.8114 22.6005L24.6953 23.4844L25.5792 24.3682C25.9064 24.0411 26.2012 23.7473 26.4285 23.4827C26.6659 23.2064 26.8896 22.8955 27.0374 22.5072L25.8691 22.0625ZM24.6953 23.4844L23.8114 22.6005L22.6005 23.8114L23.4844 24.6953L24.3683 25.5792L25.5792 24.3683L24.6953 23.4844ZM23.4844 24.6953L22.6005 23.8114C22.2471 24.1648 22.0298 24.3808 21.8536 24.5321C21.6891 24.6734 21.6293 24.6966 21.6174 24.7011L22.0625 25.8691L22.5076 27.0372C22.8956 26.8894 23.2063 26.6659 23.4826 26.4286C23.7472 26.2013 24.041 25.9065 24.3683 25.5792L23.4844 24.6953ZM22.0625 25.8691L21.6178 24.7009C21.4854 24.7513 21.3415 24.7632 21.2032 24.7354L20.957 25.9609L20.7109 27.1865C21.3119 27.3072 21.9347 27.2553 22.5072 27.0374L22.0625 25.8691ZM20.957 25.9609L21.2036 24.7355C21.191 24.733 21.1282 24.72 20.943 24.6079C20.7444 24.4877 20.4947 24.3105 20.0879 24.02L19.3613 25.0371L18.6348 26.0543C19.0116 26.3234 19.3499 26.5659 19.6484 26.7466C19.9602 26.9354 20.3034 27.1045 20.7105 27.1864L20.957 25.9609ZM19.3613 25.0371L20.0877 24.0198L18.2029 22.6741L17.4766 23.6914L16.7502 24.7087L18.635 26.0544L19.3613 25.0371ZM17.4766 23.6914L18.2031 22.6743C17.3737 22.0817 16.3768 21.9617 15.5081 22.1237L15.7373 23.3525L15.9665 24.5814C16.3062 24.518 16.5792 24.5866 16.75 24.7085L17.4766 23.6914ZM15.7373 23.3525L15.5082 22.1237C15.0196 22.2148 14.5154 22.2627 13.999 22.2627L13.999 23.5127L13.9991 24.7627C14.6704 24.7627 15.3279 24.7004 15.9664 24.5814L15.7373 23.3525ZM13.999 23.5127L13.999 22.2627C13.4819 22.2627 12.9766 22.2148 12.4878 22.1237L12.2588 23.3525L12.0297 24.5814C12.6688 24.7005 13.3274 24.7627 13.999 24.7627L13.999 23.5127ZM12.2588 23.3525L12.4877 22.1237C11.618 21.9617 10.6216 22.0829 9.7926 22.6755L10.5195 23.6924L11.2465 24.7093C11.4178 24.5868 11.6907 24.5182 12.0299 24.5814L12.2588 23.3525ZM10.5195 23.6924L9.79278 22.6754L7.91095 24.0201L8.6377 25.0371L9.36444 26.0541L11.2463 24.7094L10.5195 23.6924ZM8.6377 25.0371L7.91113 24.02C7.50444 24.3105 7.25485 24.4877 7.05626 24.608C6.87097 24.7202 6.8083 24.7331 6.79596 24.7356L7.04297 25.9609L7.28997 27.1863C7.69702 27.1042 8.04017 26.9349 8.35163 26.7462C8.64978 26.5656 8.98786 26.3231 9.36426 26.0543L8.6377 25.0371ZM7.04297 25.9609L6.79642 24.7355C6.65875 24.7632 6.515 24.7514 6.3819 24.7008L5.9375 25.8691L5.4931 27.0375C6.06499 27.255 6.68773 27.3075 7.28952 27.1864L7.04297 25.9609ZM5.9375 25.8691L6.38219 24.7009C6.37042 24.6964 6.31076 24.6735 6.14647 24.5324C5.97033 24.381 5.75319 24.1651 5.39953 23.8114L4.51562 24.6953L3.63172 25.5792C3.95904 25.9065 4.25281 26.2014 4.51735 26.4287C4.79375 26.6661 5.10454 26.8896 5.49281 27.0374L5.9375 25.8691ZM4.51562 24.6953L5.39951 23.8114L4.18857 22.6005L3.30469 23.4844L2.4208 24.3683L3.63174 25.5792L4.51562 24.6953ZM3.30469 23.4844L4.18859 22.6005C3.8349 22.2468 3.619 22.0297 3.46764 21.8535C3.32648 21.6892 3.30356 21.6296 3.2991 21.6178L2.13086 22.0625L0.962621 22.5072C1.11043 22.8955 1.33394 23.2063 1.57139 23.4827C1.79864 23.7472 2.09351 24.041 2.42078 24.3682L3.30469 23.4844ZM2.13086 22.0625L3.29923 21.6182C3.24861 21.4851 3.23684 21.3412 3.26453 21.2035L2.03906 20.957L0.8136 20.7106C0.692593 21.3123 0.745046 21.935 0.96249 22.5068L2.13086 22.0625ZM2.03906 20.957L3.26441 21.2041C3.26698 21.1913 3.28004 21.1283 3.39225 20.9429C3.51246 20.7443 3.68969 20.4944 3.98007 20.0879L2.96289 19.3613L1.94571 18.6348C1.67656 19.0116 1.43416 19.3499 1.25348 19.6484C1.0648 19.9602 0.895709 20.3033 0.813714 20.71L2.03906 20.957ZM2.96289 19.3613L3.98009 20.0878L5.32482 18.205L4.30762 17.4785L3.29041 16.752L1.94569 18.6348L2.96289 19.3613ZM4.30762 17.4785L5.32498 18.2048C5.91706 17.3754 6.03631 16.3795 5.87554 15.5124L4.64648 15.7402L3.41743 15.9681C3.48062 16.3089 3.41193 16.5818 3.29025 16.7522L4.30762 17.4785ZM4.64648 15.7402L5.87551 15.5122C5.78483 15.0234 5.7373 14.5176 5.7373 14H4.4873H3.2373C3.2373 14.6708 3.29891 15.3292 3.41745 15.9682L4.64648 15.7402ZM4.4873 14L5.7373 14.0001C5.73734 13.4822 5.78486 12.9769 5.87555 12.4876L4.64648 12.2598L3.41742 12.032C3.29897 12.671 3.23735 13.3288 3.2373 13.9999L4.4873 14ZM4.64648 12.2598L5.87554 12.4876C6.03655 11.6191 5.91578 10.623 5.32393 9.79414L4.30664 10.5205L3.28935 11.2469C3.41174 11.4183 3.48046 11.6919 3.41743 12.0319L4.64648 12.2598ZM4.30664 10.5205L5.32416 9.79446L3.98139 7.91262L2.96387 8.63867L1.94634 9.36472L3.28912 11.2466L4.30664 10.5205ZM2.96387 8.63867L3.98104 7.91213C3.69042 7.50526 3.51323 7.25571 3.39293 7.05714C3.28073 6.87196 3.2679 6.80939 3.26541 6.79704L2.04004 7.04395L0.814666 7.29085C0.8967 7.69798 1.06603 8.0411 1.25474 8.35258C1.43534 8.65068 1.67781 8.98876 1.94669 9.36521L2.96387 8.63867ZM2.04004 7.04395L3.26553 6.79761C3.23727 6.65703 3.24948 6.51252 3.29911 6.38213L2.13086 5.9375L0.962613 5.49287C0.743902 6.06751 0.69415 6.69129 0.814551 7.29028L2.04004 7.04395ZM2.13086 5.9375L3.29891 6.38265C3.30344 6.37076 3.32657 6.31088 3.46786 6.14639C3.61923 5.97017 3.83518 5.7529 4.18858 5.3995L3.30469 4.51562L2.42079 3.63175C2.09351 3.95904 1.79874 4.2528 1.57146 4.51739C1.3341 4.79371 1.11065 5.10441 0.962808 5.49235L2.13086 5.9375ZM3.30469 4.51562L4.18821 5.39986L5.40013 4.18893L4.5166 3.30469L3.63307 2.42045L2.42116 3.63139L3.30469 4.51562ZM4.5166 3.30469L5.40049 4.18856C5.75416 3.83489 5.9711 3.61898 6.14734 3.46741C6.31175 3.32601 6.37112 3.3033 6.3823 3.29904L5.9375 2.13086L5.4927 0.962676C5.10403 1.11067 4.79317 1.33464 4.5172 1.57198C4.25306 1.79916 3.95948 2.09404 3.63271 2.42081L4.5166 3.30469ZM13.999 10.4326L13.9989 9.18262C11.3384 9.18287 9.18285 11.3401 9.18262 13.9999L10.4326 14L11.6826 14.0001C11.6827 12.7201 12.72 11.6827 13.9991 11.6826L13.999 10.4326ZM10.4326 14H9.18262C9.18262 16.6601 11.3384 18.8171 13.9989 18.8174L13.999 17.5674L13.9991 16.3174C12.7198 16.3173 11.6826 15.28 11.6826 14H10.4326ZM13.999 17.5674V18.8174C16.6594 18.8174 18.8164 16.6605 18.8164 14H17.5664H16.3164C16.3164 15.2798 15.2788 16.3174 13.999 16.3174V17.5674ZM17.5664 14L18.8164 13.9999C18.8162 11.3397 16.6594 9.18262 13.999 9.18262V10.4326V11.6826C15.2786 11.6826 16.3163 12.7203 16.3164 14.0001L17.5664 14Z" fill="#422C1A"/>
</svg>
